# xmcd
#
# Track frame offsets: 
#        150
#        17995
#        31305
#        45333
#        62390
#        83090
#        96728
#        107100
#
# Disc length: 1625 seconds
#
# Revision: 0
# Processed by: cddbd v1.4PL0 Copyright (c) Steve Scherf et al.
# Submitted via: ExactAudioCopy v0.90b3
#
DISCID=5e065708
DTITLE=Red Sovine - Gone But Not Forgotten
DYEAR=1900
DGENRE=Country
TTITLE0=The King's Last Concert
TTITLE1=Flesh And Blood
TTITLE2=Does Steppin' Out Mean Daddy
TTITLE3=Bootlegger King
TTITLE4=Daddy
TTITLE5=Sad Violins
TTITLE6=1460 Elder Street
TTITLE7=I'd Love To Make Love To You
EXTD=
EXTT0=
EXTT1=
EXTT2=
EXTT3=
EXTT4=
EXTT5=
EXTT6=
EXTT7=
PLAYORDER=
